<?xml version="1.0" standalone="no"?>
<!DOCTYPE svg PUBLIC "-//W3C//DTD SVG 20010904//EN"
 "http://www.w3.org/TR/2001/REC-SVG-20010904/DTD/svg10.dtd">
<svg version="1.0" xmlns="http://www.w3.org/2000/svg"
 width="900.000000pt" height="165.000000pt" viewBox="0 0 900.000000 165.000000"
 preserveAspectRatio="xMidYMid meet">
<metadata>
Created by potrace 1.10, written by Peter Selinger 2001-2011
</metadata>
<g transform="translate(0.000000,165.000000) scale(0.100000,-0.100000)"
fill="#ffffff" stroke="none">
<path d="M5737 1584 c-135 -70 -163 -217 -154 -814 9 -555 18 -601 141 -695
50 -38 129 -45 190 -16 46 23 92 72 114 125 23 51 51 282 57 468 8 222 -9 618
-30 707 -17 72 -56 154 -88 189 -59 64 -149 78 -230 36z m161 -130 c64 -42 82
-174 82 -604 0 -468 -16 -616 -71 -666 -14 -12 -36 -18 -71 -18 -46 0 -54 4
-79 33 -15 18 -32 52 -38 75 -19 78 -34 445 -28 721 6 289 17 381 48 432 33
53 100 64 157 27z"/>
<path d="M1705 1589 c-175 -13 -256 -45 -326 -127 -38 -44 -69 -120 -69 -168
0 -43 29 -125 54 -152 47 -53 155 -88 304 -98 132 -10 127 3 112 -276 -10
-190 -9 -242 4 -353 20 -171 37 -217 100 -280 113 -111 273 -113 368 -5 48 54
62 86 88 199 31 139 43 263 45 476 1 110 3 206 3 213 3 22 62 40 152 47 120 9
175 30 236 90 87 86 99 170 39 265 -57 91 -173 144 -345 160 -148 14 -632 20
-765 9z m785 -123 c105 -17 149 -35 194 -82 49 -50 49 -90 0 -144 -42 -46 -99
-67 -209 -76 -92 -8 -126 -19 -157 -52 -43 -46 -48 -80 -48 -330 0 -227 -8
-312 -41 -462 -20 -88 -79 -150 -143 -150 -37 0 -105 34 -126 64 -67 93 -84
324 -54 762 7 91 7 91 -24 125 l-30 34 -129 1 c-107 1 -135 4 -173 22 -83 38
-122 104 -97 164 27 65 108 107 242 128 39 5 81 12 95 14 57 10 619 -4 700
-18z"/>
<path d="M6625 1581 c-187 -19 -267 -44 -324 -102 -43 -43 -59 -82 -82 -199
-17 -83 -19 -146 -19 -490 0 -550 13 -617 133 -674 29 -14 83 -30 118 -36 110
-18 564 -32 654 -21 44 6 121 15 172 20 148 16 261 89 312 203 53 120 55 129
55 237 0 100 -2 110 -34 175 -26 52 -48 80 -87 110 -29 23 -53 46 -53 51 0 6
9 35 21 65 36 94 41 132 36 241 -7 135 -38 209 -125 291 -72 69 -115 91 -217
112 -93 19 -434 29 -560 17z m467 -116 c145 -23 226 -75 280 -178 17 -32 23
-64 26 -138 5 -111 -4 -148 -52 -211 -35 -46 -48 -81 -39 -105 3 -8 33 -28 67
-43 111 -50 146 -109 146 -244 0 -141 -37 -219 -134 -280 -107 -68 -209 -85
-511 -85 -246 0 -333 11 -419 53 -118 58 -127 95 -133 555 -5 311 -3 362 12
425 42 173 109 231 295 255 52 6 109 13 125 15 52 7 247 -4 337 -19z"/>
<path d="M6732 1202 c-66 -24 -89 -45 -102 -94 -13 -46 0 -80 43 -112 25 -19
45 -21 181 -24 170 -4 211 5 242 52 21 33 15 108 -11 137 -46 49 -259 74 -353
41z"/>
<path d="M6790 715 c-36 -6 -80 -19 -97 -28 -63 -33 -87 -130 -47 -184 35 -46
79 -55 284 -57 202 -1 225 4 269 60 25 32 28 99 6 131 -56 80 -228 113 -415
78z"/>
<path d="M175 1201 c-53 -24 -98 -76 -126 -148 -22 -54 -24 -74 -27 -283 -4
-287 8 -403 48 -487 49 -100 150 -174 290 -214 92 -27 248 -26 349 2 l77 21
65 -36 c101 -55 195 -49 256 16 39 41 73 135 90 251 35 224 15 674 -33 769
-42 84 -112 128 -204 128 -67 0 -119 -21 -159 -64 -48 -51 -54 -85 -60 -346
-7 -265 -12 -290 -66 -326 -30 -20 -107 -22 -141 -4 -46 25 -52 60 -59 332 -6
218 -10 259 -26 294 -44 93 -177 140 -274 95z m855 -98 c78 -65 99 -218 81
-575 -11 -207 -16 -251 -34 -298 -41 -101 -121 -126 -216 -66 -48 30 -48 30
-176 -3 -178 -46 -374 -11 -469 84 -83 82 -100 168 -101 490 0 251 4 277 47
335 19 24 67 50 95 50 36 0 81 -33 101 -74 21 -41 22 -57 22 -279 0 -258 6
-292 59 -351 78 -86 243 -89 322 -6 57 59 70 126 76 369 5 245 13 297 51 328
40 33 101 31 142 -4z"/>
<path d="M3420 1195 c-143 -29 -281 -113 -359 -219 -23 -30 -41 -58 -41 -62 0
-4 -6 -15 -13 -23 -36 -44 -51 -124 -52 -271 0 -151 2 -162 53 -270 102 -213
357 -342 618 -310 201 24 372 127 461 277 57 97 75 169 77 303 1 128 -6 162
-53 260 -63 132 -172 236 -292 281 -126 47 -272 60 -399 34z m268 -111 c123
-31 241 -123 295 -230 27 -54 57 -174 57 -226 0 -59 -29 -172 -60 -235 -38
-77 -106 -139 -209 -190 l-76 -37 -155 -1 -155 0 -72 40 c-128 71 -189 143
-223 267 -42 154 -37 242 24 367 52 109 151 193 286 243 60 22 204 23 288 2z"/>
<path d="M3477 826 c-45 -17 -80 -47 -109 -95 -17 -28 -22 -50 -21 -113 0 -67
4 -84 26 -117 53 -80 130 -112 231 -97 52 8 114 58 145 116 41 79 20 208 -43
263 -57 51 -158 69 -229 43z"/>
<path d="M4740 1195 c-77 -16 -163 -49 -225 -88 -45 -28 -117 -103 -157 -166
-71 -108 -83 -153 -83 -321 0 -157 2 -164 68 -299 71 -142 240 -250 438 -280
198 -30 450 56 566 194 95 114 136 231 137 390 0 127 -20 203 -82 303 -79 129
-163 199 -289 241 -124 42 -250 51 -373 26z m265 -110 c257 -67 400 -321 333
-590 -32 -127 -117 -227 -247 -292 l-76 -37 -155 0 -155 -1 -74 40 c-136 72
-203 165 -235 319 -19 95 -20 145 -2 211 58 220 238 362 461 364 52 1 116 -6
150 -14z"/>
<path d="M4797 825 c-45 -15 -79 -45 -110 -95 -18 -28 -22 -50 -21 -112 0 -66
4 -82 27 -117 53 -80 129 -112 231 -97 91 14 166 113 166 221 0 152 -147 253
-293 200z"/>
<path d="M8217 1194 c-121 -29 -257 -115 -320 -202 -51 -69 -96 -162 -107
-222 -13 -68 -13 -228 0 -309 39 -235 229 -395 500 -421 296 -28 504 56 587
237 25 54 27 110 9 183 -6 20 1 35 32 72 46 55 57 104 47 206 -31 306 -411
538 -748 456z m288 -113 c121 -33 172 -64 257 -155 90 -97 124 -207 83 -269
-54 -82 -124 -98 -433 -96 -221 2 -244 0 -262 -16 -25 -23 -26 -65 -1 -113 40
-79 107 -110 245 -114 95 -3 98 -2 121 24 13 15 27 48 30 72 11 69 41 91 126
91 90 0 114 -20 113 -98 -2 -120 -102 -219 -248 -246 -80 -15 -260 -13 -316 3
-63 17 -148 58 -196 94 -77 56 -144 215 -144 339 0 74 29 210 56 263 89 176
353 279 569 221z"/>
<path d="M8300 870 c-48 -25 -93 -74 -88 -96 14 -76 335 -74 346 2 4 25 -38
68 -90 95 -47 24 -122 24 -168 -1z"/>
</g>
</svg>
